<svg xmlns="http://www.w3.org/2000/svg" width="1200" height="450" viewBox="0 0 1200 450" role="img" aria-label="Схема PCA с условными образцами A, B и C">
<rect width="100%" height="100%" fill="#ffffff"/>
<rect x="36" y="18" width="1128" height="414" rx="12" fill="#fbfaf9" stroke="#e3e0dd"/>
<path d="M110 363 H1035 M110 363 V67" stroke="#50555a" stroke-width="2.5"/>
<text x="1046" y="369" fill="#24262a" font-family="'Noto Sans', 'DejaVu Sans', Arial, sans-serif" font-size="22" font-weight="650">PC1</text>
<text x="84" y="62" fill="#24262a" font-family="'Noto Sans', 'DejaVu Sans', Arial, sans-serif" font-size="22" font-weight="650">PC2</text>
<circle cx="216.2" cy="194.8" r="6" fill="#963e3a" fill-opacity=".82" stroke="white" stroke-width="1.5"/>
<circle cx="359.1" cy="196.7" r="6" fill="#963e3a" fill-opacity=".82" stroke="white" stroke-width="1.5"/>
<circle cx="323.7" cy="141.3" r="6" fill="#963e3a" fill-opacity=".82" stroke="white" stroke-width="1.5"/>
<circle cx="301.0" cy="188.2" r="6" fill="#963e3a" fill-opacity=".82" stroke="white" stroke-width="1.5"/>
<circle cx="368.4" cy="211.8" r="6" fill="#963e3a" fill-opacity=".82" stroke="white" stroke-width="1.5"/>
<circle cx="314.0" cy="173.7" r="6" fill="#963e3a" fill-opacity=".82" stroke="white" stroke-width="1.5"/>
<circle cx="266.9" cy="204.6" r="6" fill="#963e3a" fill-opacity=".82" stroke="white" stroke-width="1.5"/>
<circle cx="390.4" cy="123.7" r="6" fill="#963e3a" fill-opacity=".82" stroke="white" stroke-width="1.5"/>
<circle cx="153.8" cy="290.5" r="6" fill="#963e3a" fill-opacity=".82" stroke="white" stroke-width="1.5"/>
<circle cx="408.1" cy="233.6" r="6" fill="#963e3a" fill-opacity=".82" stroke="white" stroke-width="1.5"/>
<circle cx="337.3" cy="188.4" r="6" fill="#963e3a" fill-opacity=".82" stroke="white" stroke-width="1.5"/>
<circle cx="295.6" cy="154.6" r="6" fill="#963e3a" fill-opacity=".82" stroke="white" stroke-width="1.5"/>
<circle cx="351.3" cy="197.2" r="6" fill="#963e3a" fill-opacity=".82" stroke="white" stroke-width="1.5"/>
<circle cx="204.8" cy="183.9" r="6" fill="#963e3a" fill-opacity=".82" stroke="white" stroke-width="1.5"/>
<circle cx="284.6" cy="178.0" r="6" fill="#963e3a" fill-opacity=".82" stroke="white" stroke-width="1.5"/>
<circle cx="428.5" cy="252.8" r="6" fill="#963e3a" fill-opacity=".82" stroke="white" stroke-width="1.5"/>
<circle cx="133.3" cy="227.2" r="6" fill="#963e3a" fill-opacity=".82" stroke="white" stroke-width="1.5"/>
<circle cx="378.3" cy="263.3" r="6" fill="#963e3a" fill-opacity=".82" stroke="white" stroke-width="1.5"/>
<circle cx="362.9" cy="120.1" r="6" fill="#963e3a" fill-opacity=".82" stroke="white" stroke-width="1.5"/>
<circle cx="367.7" cy="209.4" r="6" fill="#963e3a" fill-opacity=".82" stroke="white" stroke-width="1.5"/>
<circle cx="402.1" cy="226.8" r="6" fill="#963e3a" fill-opacity=".82" stroke="white" stroke-width="1.5"/>
<circle cx="229.9" cy="287.2" r="6" fill="#963e3a" fill-opacity=".82" stroke="white" stroke-width="1.5"/>
<circle cx="248.0" cy="255.1" r="6" fill="#963e3a" fill-opacity=".82" stroke="white" stroke-width="1.5"/>
<circle cx="342.4" cy="182.6" r="6" fill="#963e3a" fill-opacity=".82" stroke="white" stroke-width="1.5"/>
<circle cx="380.1" cy="203.0" r="6" fill="#4a7291" fill-opacity=".82" stroke="white" stroke-width="1.5"/>
<circle cx="468.3" cy="238.2" r="6" fill="#4a7291" fill-opacity=".82" stroke="white" stroke-width="1.5"/>
<circle cx="514.2" cy="331.6" r="6" fill="#4a7291" fill-opacity=".82" stroke="white" stroke-width="1.5"/>
<circle cx="555.7" cy="308.4" r="6" fill="#4a7291" fill-opacity=".82" stroke="white" stroke-width="1.5"/>
<circle cx="452.0" cy="224.7" r="6" fill="#4a7291" fill-opacity=".82" stroke="white" stroke-width="1.5"/>
<circle cx="588.4" cy="298.2" r="6" fill="#4a7291" fill-opacity=".82" stroke="white" stroke-width="1.5"/>
<circle cx="573.0" cy="224.5" r="6" fill="#4a7291" fill-opacity=".82" stroke="white" stroke-width="1.5"/>
<circle cx="459.1" cy="339.3" r="6" fill="#4a7291" fill-opacity=".82" stroke="white" stroke-width="1.5"/>
<circle cx="482.4" cy="227.5" r="6" fill="#4a7291" fill-opacity=".82" stroke="white" stroke-width="1.5"/>
<circle cx="629.5" cy="251.0" r="6" fill="#4a7291" fill-opacity=".82" stroke="white" stroke-width="1.5"/>
<circle cx="485.8" cy="290.9" r="6" fill="#4a7291" fill-opacity=".82" stroke="white" stroke-width="1.5"/>
<circle cx="513.6" cy="314.7" r="6" fill="#4a7291" fill-opacity=".82" stroke="white" stroke-width="1.5"/>
<circle cx="519.0" cy="204.2" r="6" fill="#4a7291" fill-opacity=".82" stroke="white" stroke-width="1.5"/>
<circle cx="688.5" cy="311.5" r="6" fill="#4a7291" fill-opacity=".82" stroke="white" stroke-width="1.5"/>
<circle cx="536.7" cy="240.6" r="6" fill="#4a7291" fill-opacity=".82" stroke="white" stroke-width="1.5"/>
<circle cx="439.2" cy="216.7" r="6" fill="#4a7291" fill-opacity=".82" stroke="white" stroke-width="1.5"/>
<circle cx="443.5" cy="291.5" r="6" fill="#4a7291" fill-opacity=".82" stroke="white" stroke-width="1.5"/>
<circle cx="606.2" cy="229.7" r="6" fill="#4a7291" fill-opacity=".82" stroke="white" stroke-width="1.5"/>
<circle cx="494.2" cy="266.4" r="6" fill="#4a7291" fill-opacity=".82" stroke="white" stroke-width="1.5"/>
<circle cx="525.7" cy="274.0" r="6" fill="#4a7291" fill-opacity=".82" stroke="white" stroke-width="1.5"/>
<circle cx="558.9" cy="267.6" r="6" fill="#4a7291" fill-opacity=".82" stroke="white" stroke-width="1.5"/>
<circle cx="568.0" cy="195.1" r="6" fill="#4a7291" fill-opacity=".82" stroke="white" stroke-width="1.5"/>
<circle cx="573.2" cy="142.3" r="6" fill="#4a7291" fill-opacity=".82" stroke="white" stroke-width="1.5"/>
<circle cx="533.4" cy="231.5" r="6" fill="#4a7291" fill-opacity=".82" stroke="white" stroke-width="1.5"/>
<circle cx="788.0" cy="151.9" r="6" fill="#a9823a" fill-opacity=".82" stroke="white" stroke-width="1.5"/>
<circle cx="778.6" cy="73.9" r="6" fill="#a9823a" fill-opacity=".82" stroke="white" stroke-width="1.5"/>
<circle cx="725.1" cy="121.9" r="6" fill="#a9823a" fill-opacity=".82" stroke="white" stroke-width="1.5"/>
<circle cx="786.8" cy="169.8" r="6" fill="#a9823a" fill-opacity=".82" stroke="white" stroke-width="1.5"/>
<circle cx="729.9" cy="135.1" r="6" fill="#a9823a" fill-opacity=".82" stroke="white" stroke-width="1.5"/>
<circle cx="711.2" cy="153.7" r="6" fill="#a9823a" fill-opacity=".82" stroke="white" stroke-width="1.5"/>
<circle cx="790.6" cy="193.9" r="6" fill="#a9823a" fill-opacity=".82" stroke="white" stroke-width="1.5"/>
<circle cx="750.0" cy="108.5" r="6" fill="#a9823a" fill-opacity=".82" stroke="white" stroke-width="1.5"/>
<circle cx="702.5" cy="194.1" r="6" fill="#a9823a" fill-opacity=".82" stroke="white" stroke-width="1.5"/>
<circle cx="687.1" cy="142.6" r="6" fill="#a9823a" fill-opacity=".82" stroke="white" stroke-width="1.5"/>
<circle cx="599.5" cy="201.7" r="6" fill="#a9823a" fill-opacity=".82" stroke="white" stroke-width="1.5"/>
<circle cx="762.5" cy="127.8" r="6" fill="#a9823a" fill-opacity=".82" stroke="white" stroke-width="1.5"/>
<circle cx="744.2" cy="188.1" r="6" fill="#a9823a" fill-opacity=".82" stroke="white" stroke-width="1.5"/>
<circle cx="751.6" cy="169.3" r="6" fill="#a9823a" fill-opacity=".82" stroke="white" stroke-width="1.5"/>
<circle cx="759.0" cy="101.4" r="6" fill="#a9823a" fill-opacity=".82" stroke="white" stroke-width="1.5"/>
<circle cx="638.5" cy="206.5" r="6" fill="#a9823a" fill-opacity=".82" stroke="white" stroke-width="1.5"/>
<circle cx="720.8" cy="214.2" r="6" fill="#a9823a" fill-opacity=".82" stroke="white" stroke-width="1.5"/>
<circle cx="838.0" cy="136.0" r="6" fill="#a9823a" fill-opacity=".82" stroke="white" stroke-width="1.5"/>
<circle cx="714.0" cy="132.3" r="6" fill="#a9823a" fill-opacity=".82" stroke="white" stroke-width="1.5"/>
<circle cx="872.7" cy="160.1" r="6" fill="#a9823a" fill-opacity=".82" stroke="white" stroke-width="1.5"/>
<circle cx="741.7" cy="201.7" r="6" fill="#a9823a" fill-opacity=".82" stroke="white" stroke-width="1.5"/>
<circle cx="695.0" cy="130.8" r="6" fill="#a9823a" fill-opacity=".82" stroke="white" stroke-width="1.5"/>
<circle cx="719.4" cy="156.6" r="6" fill="#a9823a" fill-opacity=".82" stroke="white" stroke-width="1.5"/>
<circle cx="670.5" cy="128.1" r="6" fill="#a9823a" fill-opacity=".82" stroke="white" stroke-width="1.5"/>
<text x="247" y="130" fill="#963e3a" font-family="'Noto Sans', 'DejaVu Sans', Arial, sans-serif" font-size="25" font-weight="720">A</text>
<text x="513" y="158" fill="#4a7291" font-family="'Noto Sans', 'DejaVu Sans', Arial, sans-serif" font-size="25" font-weight="720">B</text>
<text x="763" y="88" fill="#a9823a" font-family="'Noto Sans', 'DejaVu Sans', Arial, sans-serif" font-size="25" font-weight="720">C</text>
<text x="838" y="401" fill="#5d6268" font-family="'Noto Sans', 'DejaVu Sans', Arial, sans-serif" font-size="19" font-weight="450">Условные образцы</text>
</svg>
